<?xml version="1.0" encoding="UTF-8"?>
<svg version="1.1" xmlns="http://www.w3.org/2000/svg" width="1536" height="1024">
<path d="M0 0 C506.88 0 1013.76 0 1536 0 C1536 337.92 1536 675.84 1536 1024 C1029.12 1024 522.24 1024 0 1024 C0 686.08 0 348.16 0 0 Z " fill="#FDFDFD" transform="translate(0,0)"/>
<path d="M0 0 C0.99 0.495 0.99 0.495 2 1 C1.22398437 1.58265625 0.44796875 2.1653125 -0.3515625 2.765625 C-18.64226743 16.6011222 -35.3929062 31.43855392 -49 50 C-49.44553223 50.60118652 -49.89106445 51.20237305 -50.35009766 51.82177734 C-66.15119191 73.32013552 -77.58779097 97.24934112 -84.46191406 123.00585938 C-84.97897505 124.92208178 -85.53173675 126.82856234 -86.0859375 128.734375 C-100.87194391 182.3197516 -89.47394161 240.99203734 -63 289 C-57.15420296 299.29023543 -50.48330408 308.8427265 -43 318 C-42.54399414 318.56428711 -42.08798828 319.12857422 -41.61816406 319.70996094 C-27.65796882 336.8895286 -10.98224642 351.55621823 8 363 C8.07782715 362.07380859 8.07782715 362.07380859 8.15722656 361.12890625 C8.68545404 355.32061419 9.54209953 349.70212326 10.75 344 C11.11814671 342.20983241 11.48528804 340.41945785 11.8515625 338.62890625 C12.13821777 337.23309326 12.13821777 337.23309326 12.43066406 335.80908203 C13.3663589 331.19239902 14.24383636 326.56484614 15.125 321.9375 C16.85254252 312.88687992 18.61835866 303.84432506 20.40234375 294.8046875 C20.84294995 292.56909451 21.28354221 290.33349877 21.72412109 288.09790039 C22.38448277 284.74756864 23.04566489 281.39741133 23.70977783 278.04782104 C26.17016655 265.63721636 28.52013082 253.21961519 30.65457153 240.74858093 C31.78268844 234.17642395 33.02366397 227.64224501 34.4375 221.125 C34.86925213 219.08740101 35.30021874 217.04963545 35.73046875 215.01171875 C35.94364746 214.00544434 36.15682617 212.99916992 36.37646484 211.96240234 C40.12576431 194.14955984 43.48937742 176.25893048 46.89523315 158.37814331 C49.62204682 144.06895066 52.42772177 129.77813971 55.3125 115.5 C57.78443054 103.26382508 60.1229796 91.02300091 62.19140625 78.7109375 C63.30541498 72.10790396 64.64783448 65.55800277 66 59 C59.73 59 53.46 59 47 59 C47 51.74 47 44.48 47 37 C96.5 37 146 37 197 37 C197 44.26 197 51.52 197 59 C190.73 59 184.46 59 178 59 C189.99643738 123.50957302 189.99643738 123.50957302 202.59765625 187.90234375 C203.56571818 192.70560567 204.53316331 197.5089913 205.5 202.3125 C205.74137695 203.5114389 205.98275391 204.71037781 206.23144531 205.94564819 C209.65447634 222.97514116 212.86415732 240.02203537 215.8046875 257.140625 C216.933457 263.69857903 218.19618658 270.22048675 219.53515625 276.73828125 C220.92738438 283.53833766 222.18739133 290.36002045 223.4375 297.1875 C225.11859974 306.34760544 226.85999352 315.49292486 228.6875 324.625 C228.88980225 325.63715576 229.09210449 326.64931152 229.30053711 327.69213867 C230.17980388 332.05624619 231.08879494 336.40406449 232.10546875 340.73828125 C232.99050453 344.67314415 233.39016358 348.53114143 233.625 352.5625 C233.69976562 353.78066406 233.77453125 354.99882813 233.8515625 356.25390625 C233.90054687 357.16011719 233.94953125 358.06632812 234 359 C252.17229315 346.29032002 268.49576858 331.57249615 281.72949219 313.71044922 C282.95131192 312.0655474 284.19631214 310.44070962 285.4453125 308.81640625 C298.9674017 290.91840363 308.32481231 270.97479544 316 250 C316.27279785 249.27377441 316.5455957 248.54754883 316.82666016 247.79931641 C319.69833329 240.12151196 321.78686424 232.27597606 323.6875 224.3125 C323.89028564 223.48854736 324.09307129 222.66459473 324.30200195 221.81567383 C327.92928004 205.82687434 328.40987562 189.26839453 328.375 172.9375 C328.37512085 172.05490509 328.3752417 171.17231018 328.37536621 170.26296997 C328.34558311 154.87532433 327.12680152 140.10356807 324 125 C323.85046875 124.24686523 323.7009375 123.49373047 323.546875 122.71777344 C322.59958636 118.07123493 321.37502812 113.53451439 320 109 C319.62198242 107.72503662 319.62198242 107.72503662 319.23632812 106.42431641 C313.43652688 87.14633964 305.99464698 67.9117137 295.00830078 50.95654297 C294.67556152 50.31088379 294.34282227 49.66522461 294 49 C294.33 48.34 294.66 47.68 295 47 C307.55815377 61.2144457 318.12419679 76.23621041 326.96289062 93.03125 C327.85063334 94.71645651 328.75919194 96.39066935 329.671875 98.0625 C340.52753656 118.60654769 347.79425701 142.01926476 351 165 C351.10296387 165.6712793 351.20592773 166.34255859 351.31201172 167.03417969 C355.15296168 192.53129144 353.96027994 218.79192143 349 244 C348.78762695 245.17812256 348.57525391 246.35624512 348.35644531 247.57006836 C346.71292495 256.39686685 344.36701062 264.7275712 341.375 273.1875 C341.1565744 273.81074158 340.9381488 274.43398315 340.71310425 275.07611084 C326.74041788 314.85226053 304.07898876 346.7565387 274 376 C272.90171875 377.12535156 272.90171875 377.12535156 271.78125 378.2734375 C271.1109375 378.92570312 270.440625 379.57796875 269.75 380.25 C269.18796875 380.81203125 268.6259375 381.3740625 268.046875 381.953125 C264.29328226 383.87290144 260.70185461 382.51028922 256.82275391 381.34716797 C254.34918762 380.53372025 251.89363917 379.67709419 249.4375 378.8125 C229.92104359 372.16239738 210.28990108 367.62232837 190 364 C190.32275391 361.61254883 190.32275391 361.61254883 191 359 C193.8359375 357.19921875 193.8359375 357.19921875 197.375 355.6875 C198.53773438 355.17574219 199.70046875 354.66398437 200.8984375 354.13671875 C204 353 204 353 207 353 C201.71925705 344.16030502 196.47082253 335.39566494 190.28515625 327.15234375 C185.17502245 320.10297968 180.46653762 312.76556462 175.66162109 305.50634766 C173.82191367 302.73137905 171.97054651 299.96442406 170.11694336 297.19873047 C163.64339711 287.53196113 157.32303436 277.76559691 151 268 C150.51354004 267.24895996 150.02708008 266.49791992 149.52587891 265.72412109 C145.37344605 259.31246622 141.22522967 252.89809471 137.08203125 246.48046875 C136.60048584 245.73514893 136.11894043 244.9898291 135.62280273 244.22192383 C134.68013502 242.76262482 133.73821656 241.30284148 132.79711914 239.8425293 C129.92236614 235.39094302 126.98587495 230.99129359 123.92578125 226.6640625 C123 225 123 225 123 222 C122.34 222 121.68 222 121 222 C120.76539063 222.67546875 120.53078125 223.3509375 120.2890625 224.046875 C118.68978343 227.71067796 116.5771924 230.93099567 114.375 234.25 C113.38327433 235.76247021 112.3924457 237.27552886 111.40234375 238.7890625 C110.86077637 239.61567383 110.31920898 240.44228516 109.76123047 241.29394531 C105.7978353 247.38353112 101.910802 253.52273916 98.01123047 259.65332031 C93.20220648 267.1888837 88.27223578 274.6372432 83.29708862 282.0635376 C81.15482128 285.2617926 79.01704803 288.46304859 76.87890625 291.6640625 C76.44958801 292.30664505 76.02026978 292.9492276 75.57794189 293.61128235 C67.2019284 306.15016718 58.84122439 318.69940345 50.55563354 331.29827881 C49.73474802 332.5457991 48.91276781 333.79259983 48.08963013 335.03863525 C46.9483664 336.76709365 45.81148162 338.49835144 44.67578125 340.23046875 C44.03552002 341.20395264 43.39525879 342.17743652 42.7355957 343.18041992 C40.97083491 346.04738045 39.45931365 348.96778015 38 352 C39.56119422 352.79423861 41.12401964 353.58527123 42.6875 354.375 C43.99267578 355.03628906 43.99267578 355.03628906 45.32421875 355.7109375 C47.84772799 356.92664268 50.38737532 357.99260958 53 359 C53 360.65 53 362.3 53 364 C52.32348389 364.11480713 51.64696777 364.22961426 50.94995117 364.34790039 C25.71623286 368.68597223 1.39142338 374.77858416 -22.77124023 383.26318359 C-23.87447632 383.62790771 -23.87447632 383.62790771 -25 384 C-25.68739258 384.24451904 -26.37478516 384.48903809 -27.08300781 384.7409668 C-29 385 -29 385 -30.68481445 384.14233398 C-31.51565552 383.45119507 -31.51565552 383.45119507 -32.36328125 382.74609375 C-32.99540527 382.22837402 -33.6275293 381.7106543 -34.27880859 381.17724609 C-34.94992676 380.60312988 -35.62104492 380.02901367 -36.3125 379.4375 C-37.01455566 378.85049316 -37.71661133 378.26348633 -38.43994141 377.65869141 C-71.45424425 349.7735415 -94.28537491 317.18338139 -110 277 C-110.28246582 276.28263672 -110.56493164 275.56527344 -110.85595703 274.82617188 C-115.63070357 262.5671123 -118.75192571 249.97954203 -120.56640625 236.95703125 C-120.96895019 234.21175409 -121.48447812 231.5254056 -122.0625 228.8125 C-132.46675173 177.96294018 -117.06355381 119.50669223 -89 76.6875 C-87.68261375 74.78055079 -86.34913086 72.88462403 -85 71 C-84.27941406 69.99324219 -83.55882812 68.98648438 -82.81640625 67.94921875 C-78.51906453 62.08785318 -73.98441095 56.58129975 -69.0546875 51.2421875 C-67.28310243 49.30893687 -65.60217659 47.33710666 -63.9375 45.3125 C-60.63918788 41.44953119 -56.87286063 38.27112691 -53 35 C-52.08605469 34.18660156 -51.17210937 33.37320313 -50.23046875 32.53515625 C-36.26468615 20.20194256 -20.46129254 10.63014935 -4 2 C-3.30503418 1.60893066 -2.61006836 1.21786133 -1.89404297 0.81494141 C-0.9564917 0.41154541 -0.9564917 0.41154541 0 0 Z " fill="#0A0B0C" transform="translate(259,336)"/>
<path d="M0 0 C0.88499176 0.38413055 1.76998352 0.76826111 2.68179321 1.16403198 C4.20980057 1.81781326 4.20980057 1.81781326 5.76867676 2.48480225 C6.86100616 2.96531036 7.95333557 3.44581848 9.07876587 3.94088745 C10.22612213 4.43549469 11.37347839 4.93010193 12.55560303 5.43969727 C15.64856467 6.77554008 18.73705639 8.12085283 21.82391357 9.47068787 C25.04143204 10.8747671 28.26451357 12.26595979 31.48696899 13.65866089 C45.50374816 19.72255061 59.48858569 25.85930277 73.46401978 32.01779175 C91.34516645 39.86966552 109.42798056 47.25695004 127.46743774 54.73532104 C135.6451431 58.12625292 143.8161594 61.53321622 151.98709106 64.94042969 C155.71787611 66.49597557 159.4491098 68.05044431 163.18032837 69.60494995 C165.24282837 70.46432495 167.30532837 71.32369995 169.36782837 72.18307495 C169.36782837 72.84307495 169.36782837 73.50307495 169.36782837 74.18307495 C166.07889833 75.68912898 162.7862539 77.18688027 159.49282837 78.68307495 C158.08710571 79.32696167 158.08710571 79.32696167 156.65298462 79.9838562 C155.75708618 80.38991089 154.86118774 80.79596558 153.93814087 81.21432495 C153.11072388 81.59137573 152.28330688 81.96842651 151.43081665 82.35690308 C149.36782837 83.18307495 149.36782837 83.18307495 147.36782837 83.18307495 C147.38410734 90.3551992 147.43890348 97.52628997 147.52041626 104.69796753 C147.54360525 107.13735249 147.55799405 109.57683769 147.56338501 112.0163269 C147.57266743 115.5243687 147.61364619 119.03083168 147.66079712 122.5385437 C147.65489815 124.17317818 147.65489815 124.17317818 147.64888 125.84083557 C147.68354554 132.0453083 147.68354554 132.0453083 150.88076782 137.19210815 C152.11186279 138.17763672 152.11186279 138.17763672 153.36782837 139.18307495 C153.94254918 143.20612063 153.7153369 145.44067036 151.99282837 149.12057495 C151.45657837 149.80119995 150.92032837 150.48182495 150.36782837 151.18307495 C149.70782837 151.18307495 149.04782837 151.18307495 148.36782837 151.18307495 C148.48787231 151.79151245 148.60791626 152.39994995 148.7315979 153.02682495 C151.57724038 167.58966134 154.08646946 182.1909485 156.32919312 196.85787964 C156.60447035 198.65487901 156.88265914 200.45143483 157.16378784 202.24752808 C157.56113525 204.79507709 157.94666719 207.3441372 158.32876587 209.89401245 C158.5095871 211.03934952 158.5095871 211.03934952 158.69406128 212.20782471 C159.26535549 216.12226643 159.45836197 219.3572531 158.36782837 223.18307495 C153.05867374 224.94347885 148.44416475 225.49292829 142.86782837 225.43307495 C142.14724243 225.44080933 141.42665649 225.4485437 140.68423462 225.45651245 C135.88897213 225.43916973 131.92000778 224.69248181 127.36782837 223.18307495 C127.94901813 216.61565774 128.78730869 210.15246661 129.92642212 203.65963745 C130.07563614 202.79220917 130.22485016 201.92478088 130.37858582 201.03106689 C130.85089132 198.28949177 131.32795875 195.54877234 131.80532837 192.80807495 C132.12141289 190.98000686 132.43717048 189.15188221 132.75259399 187.32369995 C133.35604002 183.82787742 133.95975107 180.33210101 134.56387329 176.83639526 C134.70126923 176.04076172 134.83866516 175.24512817 134.98022461 174.42538452 C135.32761086 172.41573548 135.67636543 170.40632308 136.02529907 168.39694214 C136.20536499 167.34410034 136.38543091 166.29125854 136.57095337 165.20651245 C136.79573364 163.90206177 136.79573364 163.90206177 137.02505493 162.57125854 C138.1965649 155.50329435 138.1965649 155.50329435 135.86782837 149.12057495 C135.37282837 148.48119995 134.87782837 147.84182495 134.36782837 147.18307495 C133.83279363 142.36776232 133.66686923 140.30460958 136.24282837 136.18307495 C138.36782837 134.18307495 138.36782837 134.18307495 140.36782837 134.18307495 C140.36782837 118.67307495 140.36782837 103.16307495 140.36782837 87.18307495 C136.22220337 88.97744995 132.07657837 90.77182495 127.80532837 92.62057495 C126.38824585 93.2336853 124.97116333 93.84679565 123.51113892 94.47848511 C115.58615104 97.90973189 107.6706481 101.36194679 99.76235962 104.83151245 C97.09309799 106.00097712 94.42372728 107.1701925 91.7543335 108.33935547 C89.99502732 109.11088595 88.23629938 109.88373633 86.47814941 110.65789795 C84.00007452 111.74895766 81.52009775 112.83558216 79.03970337 113.9213562 C77.91825676 114.41730789 77.91825676 114.41730789 76.77415466 114.92327881 C71.59531238 117.18307495 71.59531238 117.18307495 69.36782837 117.18307495 C69.03782837 110.25307495 68.70782837 103.32307495 68.36782837 96.18307495 C54.11426523 89.33040036 40.01604421 83.05064849 24.36782837 80.18307495 C23.32626587 79.97811401 22.28470337 79.77315308 21.21157837 79.5619812 C-13.61593416 73.77070905 -48.36211396 80.54804611 -79.63217163 96.18307495 C-79.96217163 103.11307495 -80.29217163 110.04307495 -80.63217163 117.18307495 C-84.502163 116.40907668 -87.27934168 115.62000207 -90.82357788 114.1010437 C-92.34108643 113.45486084 -92.34108643 113.45486084 -93.88925171 112.79562378 C-94.98004028 112.32535767 -96.07082886 111.85509155 -97.19467163 111.37057495 C-98.34797974 110.87775024 -99.50128784 110.38492554 -100.68954468 109.87716675 C-103.12643605 108.83508912 -105.56253649 107.79137092 -107.99740601 106.74459839 C-111.4205188 105.27400264 -114.84613389 103.80943873 -118.27279663 102.34713745 C-137.75454798 94.02565675 -157.19193893 85.60095937 -176.63217163 77.18307495 C-176.63217163 76.19307495 -176.63217163 75.20307495 -176.63217163 74.18307495 C-154.11898804 64.17721558 -131.60580444 54.1713562 -109.09262085 44.16549683 C-108.34974823 43.83533066 -107.60687561 43.50516449 -106.8414917 43.16499329 C-105.34525721 42.50000131 -103.84902105 41.83501311 -102.3527832 41.17002869 C-98.61839928 39.51032227 -94.88404458 37.85055017 -91.14974976 36.19064331 C-84.33466971 33.16139449 -77.51935835 30.13267084 -70.70300293 27.10629272 C-56.142458 20.64158799 -41.58320608 14.1740572 -27.04302979 7.66363525 C-25.78397433 7.09991059 -24.52480152 6.53644794 -23.26550293 5.9732666 C-21.5435617 5.202982 -19.82222648 4.43134308 -18.10092163 3.65963745 C-17.13605835 3.22731812 -16.17119507 2.79499878 -15.17709351 2.34957886 C-12.68897828 1.26092702 -12.68897828 1.26092702 -10.66537476 0.02828979 C-7.06896007 -1.46676155 -3.6722049 -1.13971146 0 0 Z " fill="#02278B" transform="translate(386.6321716308594,214.81692504882813)"/>
<path d="M0 0 C12.64737337 10.36954455 21.26783762 26.99902431 24 43 C25.74885317 66.18634112 23.24001129 88.76460549 7.7578125 107.05859375 C7.17773438 107.69925781 6.59765625 108.33992187 6 109 C5.41992188 109.67160156 4.83984375 110.34320312 4.2421875 111.03515625 C-7.10651602 123.35728413 -24.74303408 131.20114284 -41.44433594 132.13696289 C-63.21876721 132.95163914 -82.60609137 129.7482195 -99.6953125 115.15234375 C-112.81934262 102.89583427 -123.01808487 86.57791418 -124.17700195 68.19189453 C-124.67618074 43.27273055 -121.81047736 22.98547413 -104 4 C-98.64370527 -1.41906381 -92.68920906 -5.3904268 -86 -9 C-85.16855469 -9.45503906 -84.33710937 -9.91007812 -83.48046875 -10.37890625 C-56.88885497 -23.73451437 -22.75363322 -17.87569055 0 0 Z " fill="#03288B" transform="translate(776,424)"/>
<path d="M0 0 C0.99 0.495 0.99 0.495 2 1 C1.22398437 1.58265625 0.44796875 2.1653125 -0.3515625 2.765625 C-18.64226743 16.6011222 -35.3929062 31.43855392 -49 50 C-49.44553223 50.60118652 -49.89106445 51.20237305 -50.35009766 51.82177734 C-66.15119191 73.32013552 -77.58779097 97.24934112 -84.46191406 123.00585938 C-84.97897505 124.92208178 -85.53173675 126.82856234 -86.0859375 128.734375 C-100.87194391 182.3197516 -89.47394161 240.99203734 -63 289 C-57.15420296 299.29023543 -50.48330408 308.8427265 -43 318 C-42.54399414 318.56428711 -42.08798828 319.12857422 -41.61816406 319.70996094 C-27.63060433 336.92320363 -10.96166125 351.46180792 8 363 C7.67 366.63 7.34 370.26 7 374 C4.95232422 374.56267578 4.95232422 374.56267578 2.86328125 375.13671875 C1.01260325 375.65214881 -0.83762805 376.16918445 -2.6875 376.6875 C-3.64398438 376.95498047 -4.60046875 377.22246094 -5.5859375 377.49804688 C-12.09264932 379.35522576 -18.23440776 381.52521641 -24.40625 384.3125 C-27.81485714 385.21598623 -28.94824258 384.7398739 -32 383 C-34.24786649 381.25733583 -36.37522672 379.50548833 -38.5 377.625 C-39.10948486 377.09261719 -39.71896973 376.56023437 -40.34692383 376.01171875 C-42.23966242 374.35035017 -44.12122993 372.67713875 -46 371 C-46.57411621 370.49049805 -47.14823242 369.98099609 -47.73974609 369.45605469 C-76.48274179 343.84911467 -96.02890709 312.72504924 -110 277 C-110.28246582 276.28263672 -110.56493164 275.56527344 -110.85595703 274.82617188 C-115.63070357 262.5671123 -118.75192571 249.97954203 -120.56640625 236.95703125 C-120.96895019 234.21175409 -121.48447812 231.5254056 -122.0625 228.8125 C-132.46675173 177.96294018 -117.06355381 119.50669223 -89 76.6875 C-87.68261375 74.78055079 -86.34913086 72.88462403 -85 71 C-84.27941406 69.99324219 -83.55882812 68.98648438 -82.81640625 67.94921875 C-78.51906453 62.08785318 -73.98441095 56.58129975 -69.0546875 51.2421875 C-67.28310243 49.30893687 -65.60217659 47.33710666 -63.9375 45.3125 C-60.63918788 41.44953119 -56.87286063 38.27112691 -53 35 C-52.08605469 34.18660156 -51.17210937 33.37320313 -50.23046875 32.53515625 C-36.26468615 20.20194256 -20.46129254 10.63014935 -4 2 C-3.30503418 1.60893066 -2.61006836 1.21786133 -1.89404297 0.81494141 C-0.9564917 0.41154541 -0.9564917 0.41154541 0 0 Z " fill="#03288A" transform="translate(259,336)"/>
<path d="M0 0 C2.79216047 2.63092356 4.86748413 5.14239291 6.77734375 8.46484375 C7.53700439 9.77171143 7.53700439 9.77171143 8.31201172 11.10498047 C9.11662842 12.50707764 9.11662842 12.50707764 9.9375 13.9375 C11.10369019 15.939839 12.27170448 17.94111657 13.44140625 19.94140625 C14.03453613 20.95605957 14.62766602 21.97071289 15.23876953 23.01611328 C17.88970612 27.50734519 20.62242293 31.94553631 23.375 36.375 C23.90174316 37.22465332 24.42848633 38.07430664 24.97119141 38.94970703 C27.91146836 43.68010156 30.88065322 48.39100378 33.87109375 53.08984375 C61.18467901 96.11051239 61.18467901 96.11051239 56.60449219 120.06884766 C52.92217036 135.75376758 45.16394208 148.6826357 31.6875 157.75 C21.75310221 163.81025938 12.27471798 166.17953459 0.8125 166.1875 C-0.09564453 166.19974609 -1.00378906 166.21199219 -1.93945312 166.22460938 C-17.09371849 166.25715254 -29.04215707 160.47987563 -40 150 C-47.25853011 142.03529711 -50.96930558 134.16094425 -54 124 C-54.33 123.01 -54.66 122.02 -55 121 C-57.13413085 93.47941259 -45.94618078 74.66842657 -32 52 C-30.74478184 49.95313102 -29.48957389 47.90625579 -28.234375 45.859375 C-24.87520218 40.38867466 -21.50623991 34.92406296 -18.13476562 29.4609375 C-14.77871506 24.0216335 -11.43077731 18.57733367 -8.08190918 13.13360596 C-6.36738737 10.34671004 -4.6524262 7.56008459 -2.9375 4.7734375 C-2.36902344 3.84966309 -1.80054688 2.92588867 -1.21484375 1.97412109 C-0.81394531 1.32266113 -0.41304688 0.67120117 0 0 Z " fill="#022688" transform="translate(380,582)"/>
<path d="M0 0 C2.16295378 1.91144752 4.06251776 3.85306022 6 6 C4.54254576 9.36335594 2.68882146 11.54534005 0.0859375 14.109375 C-1.05488281 15.24052734 -1.05488281 15.24052734 -2.21875 16.39453125 C-3.0128125 17.17183594 -3.806875 17.94914062 -4.625 18.75 C-5.42679688 19.54277344 -6.22859375 20.33554687 -7.0546875 21.15234375 C-9.03202846 23.10614493 -11.01388909 25.05512103 -13 27 C-16.04672109 25.54957255 -18.0125061 24.09809898 -20.375 21.6875 C-29.14585977 13.95231371 -40.00920656 12.16207392 -51.30859375 12.71484375 C-64.10546731 13.70338531 -74.04474951 17.94487762 -82.9921875 27.4375 C-89.94866718 36.3158087 -93.39632253 46.49719258 -93.3125 57.6875 C-93.30686035 58.47842041 -93.3012207 59.26934082 -93.29541016 60.08422852 C-93.02107246 73.43578219 -88.74608569 86.47049399 -79 96 C-66.56272941 105.44234255 -53.41836493 108.96773422 -38 107 C-30.54077757 105.42276374 -23.80311902 102.40155951 -17 99 C-16.67 91.41 -16.34 83.82 -16 76 C-26.23 76 -36.46 76 -47 76 C-47 68.08 -47 60.16 -47 52 C-28.19 52 -9.38 52 10 52 C10.36097928 67.73156633 10.36097928 67.73156633 10.43945312 74.45703125 C10.49318423 79.04018352 10.55661266 83.62171213 10.67895508 88.20361328 C10.7770211 91.89961823 10.83061017 95.59388233 10.85389519 99.2910881 C10.87047844 100.69869782 10.90286737 102.10621595 10.95157051 103.5130806 C11.31767318 114.53049158 11.31767318 114.53049158 8.05130005 118.17324829 C5.75264506 119.73160747 3.5466133 120.90386411 1 122 C-0.07765625 122.58007812 -1.1553125 123.16015625 -2.265625 123.7578125 C-25.39021087 134.35153639 -51.69687791 138.40749745 -76.16796875 129.8984375 C-94.29832 122.77497883 -108.56569788 110.68969862 -116.80078125 92.82421875 C-117.19652344 91.89222656 -117.59226562 90.96023438 -118 90 C-118.46792969 88.95457031 -118.93585938 87.90914063 -119.41796875 86.83203125 C-125.74675575 70.29209211 -125.8875991 48.93143866 -119.546875 32.3671875 C-113.54533349 19.30322594 -106.56646199 7.82648637 -95 -1 C-94.23558594 -1.58523438 -93.47117187 -2.17046875 -92.68359375 -2.7734375 C-65.90308028 -21.49935379 -25.73370231 -19.17413113 0 0 Z " fill="#03288A" transform="translate(1212,422)"/>
<path d="M0 0 C4.82749179 3.60224007 8.15812484 9.19312451 10.0390625 14.8359375 C11.00676108 24.83140642 10.41175449 32.68724939 4.0390625 40.8359375 C-0.67865047 45.89551373 -5.81661037 49.69840876 -11.9609375 52.8359375 C-7.80010267 58.76197498 -3.16949358 63.81989478 2.0390625 68.8359375 C3.04147503 69.83351913 4.04189134 70.83311664 5.0390625 71.8359375 C5.6990625 72.4959375 6.3590625 73.1559375 7.0390625 73.8359375 C7.40644531 72.61003906 7.40644531 72.61003906 7.78125 71.359375 C9.26453862 67.20432426 11.15707199 63.38272461 13.1640625 59.4609375 C13.53660156 58.72488281 13.90914062 57.98882812 14.29296875 57.23046875 C15.2046747 55.43043392 16.12136182 53.63292348 17.0390625 51.8359375 C19.08157161 52.29050184 21.1230351 52.74976576 23.1640625 53.2109375 C24.30101562 53.46617187 25.43796875 53.72140625 26.609375 53.984375 C29.82304538 54.78230227 32.91472284 55.74384309 36.0390625 56.8359375 C35.45845753 60.48051119 34.47762027 63.23958105 32.67578125 66.453125 C32.20076172 67.30777344 31.72574219 68.16242188 31.23632812 69.04296875 C30.73810547 69.92339844 30.23988281 70.80382812 29.7265625 71.7109375 C28.99663086 73.01998047 28.99663086 73.01998047 28.25195312 74.35546875 C25.54551762 79.20009759 22.80005623 84.02223347 20.0390625 88.8359375 C20.82410156 89.6815625 21.60914063 90.5271875 22.41796875 91.3984375 C31.91548175 101.6445602 31.91548175 101.6445602 36.0390625 106.2734375 C36.5340625 106.82902344 37.0290625 107.38460937 37.5390625 107.95703125 C39.54685372 110.47199889 41.28127098 113.14242506 43.0390625 115.8359375 C16.44256044 117.74848894 16.44256044 117.74848894 11.17578125 113.38671875 C9.00066275 110.6064118 7.37341114 108.09767861 6.0390625 104.8359375 C5.16894531 105.41601562 5.16894531 105.41601562 4.28125 106.0078125 C2.65384072 107.09275202 1.02345787 108.17324025 -0.609375 109.25 C-2.35277167 110.42577915 -4.04700069 111.67516814 -5.7109375 112.9609375 C-16.4514388 119.15738056 -28.43623602 120.50157621 -40.51953125 118.140625 C-51.76470852 115.04657623 -60.2534365 108.68177251 -66.28515625 98.62890625 C-70.36567049 89.99539716 -70.59878726 79.45423905 -67.4609375 70.4609375 C-62.92603944 60.93291127 -55.17800872 54.66171048 -45.9609375 49.8359375 C-45.3009375 49.8359375 -44.6409375 49.8359375 -43.9609375 49.8359375 C-44.49203125 49.14628906 -45.023125 48.45664062 -45.5703125 47.74609375 C-53.52871704 37.15909208 -57.69527901 29.4474213 -55.9609375 15.8359375 C-53.44418463 7.03940223 -47.36046687 0.86515049 -39.49609375 -3.546875 C-26.39844271 -9.17984973 -12.03277957 -7.14296476 0 0 Z " fill="#090B0C" transform="translate(1009.9609375,436.1640625)"/>
<path d="M0 0 C0.61875 1.54107422 0.61875 1.54107422 1.25 3.11328125 C9.47794171 23.08023642 21.16282082 35.47081608 41 44 C57.698855 50.69343841 75.26762528 49.24514049 91.66015625 42.4921875 C109.64521939 34.07697842 119.82277334 21.54788639 128 4 C128.6634559 2.66506611 129.32944891 1.33138404 130 0 C163.17735231 2.10347403 197.40516726 13.0406863 227 28 C227.98403809 28.49064941 228.96807617 28.98129883 229.98193359 29.48681641 C233.16296904 31.07952795 236.33374353 32.69062086 239.5 34.3125 C240.48718018 34.81652344 241.47436035 35.32054687 242.49145508 35.83984375 C243.4120874 36.32195313 244.33271973 36.8040625 245.28125 37.30078125 C246.09658203 37.72528564 246.91191406 38.14979004 247.75195312 38.5871582 C250.20305564 40.12761544 252.03246075 41.88681101 254 44 C247.69014392 43.12471976 241.54372972 41.92368099 235.37011719 40.37451172 C225.57898504 37.92385457 215.73395837 35.89648236 205.80548096 34.09558105 C204.33249705 33.82759089 202.86025183 33.55550187 201.38885498 33.27893066 C182.81023097 29.52827694 182.81023097 29.52827694 165.125 34.4375 C163.69057445 35.1816744 162.25146233 35.91686205 160.80859375 36.64453125 C159.66173096 37.22388428 159.66173096 37.22388428 158.49169922 37.81494141 C149.96086973 41.87222598 140.90546992 44.87963844 132 48 C131.15598633 48.29680664 130.31197266 48.59361328 129.44238281 48.89941406 C108.45509528 56.1225886 86.89004729 59.46917602 64.75 59.4375 C64.03504364 59.43772156 63.32008728 59.43794312 62.58346558 59.43817139 C48.6874291 59.39209633 34.86982675 58.06918999 21.25 55.25 C20.4240332 55.08008545 19.59806641 54.9101709 18.74707031 54.73510742 C-2.86424922 50.13465785 -25.66069748 43.67701542 -44.74145508 32.29931641 C-49.86617635 29.43458342 -53.4885766 30.01436665 -59 31 C-60.86017623 31.25754993 -62.72089072 31.51123217 -64.58203125 31.76171875 C-84.11266954 34.61851876 -103.49840449 38.31934919 -122.54345703 43.54467773 C-125 44 -125 44 -128 43 C-100.02940744 26.2379514 -70.98243497 14.02903139 -39.375 6.0625 C-38.62013306 5.87073181 -37.86526611 5.67896362 -37.08752441 5.48138428 C-24.85696932 2.40090615 -12.68106054 -0.19250378 0 0 Z " fill="#0A0B0D" transform="translate(316,713)"/>
<path d="M0 0 C10.689835 6.99320044 18.06367762 16.64449732 20.94140625 29.2890625 C22.90242209 46.76580804 20.80095052 62.1267438 9.8125 76.3828125 C3.00591725 83.98125018 -6.85728714 88.99605174 -16.99682617 89.59179688 C-19.67076419 89.69951656 -22.33972532 89.74112467 -25.015625 89.76953125 C-26.36430664 89.81303711 -26.36430664 89.81303711 -27.74023438 89.85742188 C-34.28095698 89.91890372 -38.97835855 88.58341538 -44.703125 85.45703125 C-45.55003906 84.99941406 -46.39695312 84.54179688 -47.26953125 84.0703125 C-58.47513659 76.76802957 -65.38977083 66.73229764 -68.33984375 53.62890625 C-70.16085233 37.72934749 -68.9869397 23.79388983 -59.34765625 10.4453125 C-44.92697498 -6.98966794 -19.56065189 -11.165401 0 0 Z " fill="#FBFBFD" transform="translate(749.703125,439.54296875)"/>
<path d="M0 0 C0 14.19 0 28.38 0 43 C-42.24 43 -84.48 43 -128 43 C-128 28.81 -128 14.62 -128 0 C-87.37115634 -18.46765621 -40.48042136 -20.24021068 0 0 Z " fill="#04298C" transform="translate(445,318)"/>
<path d="M0 0 C0.88558594 -0.00773437 1.77117187 -0.01546875 2.68359375 -0.0234375 C14.01726158 0.00984787 22.6319112 3.03549097 32.25 8.9375 C43.65830045 20.66269768 43.65921687 35.11199021 43.59765625 50.47265625 C43.59578719 51.82742765 43.5943656 53.18219973 43.59336853 54.53697205 C43.58958172 58.07308881 43.57978499 61.60916338 43.56866455 65.14526367 C43.55836717 68.76545644 43.55385321 72.38565613 43.54882812 76.00585938 C43.53815861 83.08725832 43.52059369 90.16862194 43.5 97.25 C35.58 97.25 27.66 97.25 19.5 97.25 C19.17 93.29 18.84 89.33 18.5 85.25 C17.88125 86.11625 17.2625 86.9825 16.625 87.875 C11.48057189 94.04246779 4.1979994 97.46091272 -3.5 99.25 C-15.9449755 100.35109866 -26.05872651 99.28762145 -35.9375 91.0625 C-42.65579838 84.47237266 -44.67532129 79.2086663 -45.0625 69.8125 C-44.82812952 62.01577534 -43.11989675 56.30041845 -37.890625 50.44921875 C-26.36137864 39.79259883 -11.73784029 38.79743476 3.1875 39.0625 C4.67902283 39.07758555 6.17056055 39.09126706 7.66210938 39.10351562 C11.27505488 39.13618843 14.88742861 39.18775281 18.5 39.25 C18.22193971 37.64282283 17.93185779 36.03772246 17.63671875 34.43359375 C17.47647217 33.53954834 17.31622559 32.64550293 17.15112305 31.72436523 C15.8713656 26.86109498 12.64845827 24.95862319 8.5625 22.4375 C2.07597818 19.98735093 -5.90459691 20.03709293 -12.41796875 22.234375 C-17.04786926 24.50379673 -21.22550463 27.37577036 -25.5 30.25 C-27.70319933 28.18132437 -29.88672975 26.09718206 -32.0625 24 C-32.69091797 23.41347656 -33.31933594 22.82695312 -33.96679688 22.22265625 C-34.55654297 21.64902344 -35.14628906 21.07539063 -35.75390625 20.484375 C-36.30377197 19.96069336 -36.8536377 19.43701172 -37.42016602 18.89746094 C-38.5 17.25 -38.5 17.25 -38.28100586 15.15917969 C-35.83345104 9.17609788 -27.65991006 5.54234152 -22.03125 3.07421875 C-14.66131618 0.67444092 -7.73155509 -0.0675245 0 0 Z " fill="#03298B" transform="translate(1284.5,455.75)"/>
<path d="M0 0 C251.13 0 502.26 0 761 0 C761 2.64 761 5.28 761 8 C509.87 8 258.74 8 0 8 C0 5.36 0 2.72 0 0 Z " fill="#05298A" transform="translate(657,578)"/>
<path d="M0 0 C0.79019531 -0.00322266 1.58039063 -0.00644531 2.39453125 -0.00976562 C14.93875138 0.10315289 26.35703355 3.56705383 35.5 12.3125 C32.63433129 17.08861452 29.22785151 20.72887963 25.20703125 24.578125 C23.4199627 26.21534106 23.4199627 26.21534106 22.5 28.3125 C19.33245565 27.68891185 17.12021505 26.59063869 14.4375 24.8125 C10.10407301 21.95127373 6.82613109 21.14032241 1.625 21.0625 C0.59632812 21.03671875 -0.43234375 21.0109375 -1.4921875 20.984375 C-4.94344471 21.36087579 -6.77052207 22.18848766 -9.5 24.3125 C-10.74838381 27.71778996 -10.74838381 27.71778996 -10.5 31.3125 C-7.67379393 34.93463046 -4.9855817 36.09458192 -0.625 37.3125 C0.52226563 37.64378906 1.66953125 37.97507812 2.8515625 38.31640625 C5.28122684 38.97975144 7.7135517 39.63342856 10.1484375 40.27734375 C20.34101911 43.03000408 29.63838914 45.95646728 35.5 55.3125 C39.35692832 63.28932903 39.58901566 70.65916636 36.8125 79 C33.19672499 88.03313826 27.5857883 92.54048663 18.8671875 96.51171875 C5.42671562 101.51241651 -11.19473439 101.53139984 -24.42578125 95.9453125 C-29.47357294 93.26427448 -34.39140975 90.32047171 -38.5 86.3125 C-38.5 81.86261738 -35.60252646 79.80623881 -32.6875 76.75 C-32.14029297 76.16025391 -31.59308594 75.57050781 -31.02929688 74.96289062 C-28.59367114 72.36784212 -26.48660757 70.30357171 -23.5 68.3125 C-22.73816406 69.01826172 -22.73816406 69.01826172 -21.9609375 69.73828125 C-21.27257813 70.36089844 -20.58421875 70.98351562 -19.875 71.625 C-19.20210937 72.23988281 -18.52921875 72.85476563 -17.8359375 73.48828125 C-12.56958993 77.60096405 -8.04461594 78.8178602 -1.4375 78.75 C-0.74333984 78.76998047 -0.04917969 78.78996094 0.66601562 78.81054688 C4.24056541 78.80715224 6.38450864 78.38085512 9.4765625 76.55078125 C11.63356191 74.53133817 11.63356191 74.53133817 11.98828125 72.171875 C11.93027344 71.47578125 11.87226562 70.7796875 11.8125 70.0625 C11.6578125 68.20625 11.6578125 68.20625 11.5 66.3125 C4.03369667 62.29218282 -3.68090053 59.6523898 -11.84375 57.3828125 C-20.06543343 55.05845807 -28.33371914 52.47897517 -32.9375 44.75 C-33.453125 43.615625 -33.96875 42.48125 -34.5 41.3125 C-34.9125 40.52875 -35.325 39.745 -35.75 38.9375 C-37.8333256 31.64586038 -36.7176937 23.78665828 -33.3828125 17.05859375 C-28.38835535 8.72038987 -21.08022205 3.78947054 -11.9152832 0.89257812 C-7.9305647 -0.06443099 -4.07898651 -0.08317672 0 0 Z " fill="#04298B" transform="translate(1381.5,455.6875)"/>
<path d="M0 0 C8.91 0 17.82 0 27 0 C27 47.19 27 94.38 27 143 C18.09 143 9.18 143 0 143 C0 95.81 0 48.62 0 0 Z " fill="#072A8A" transform="translate(870,410)"/>
<path d="M0 0 C3.96 0 7.92 0 12 0 C12 28.71 12 57.42 12 87 C8.37 87 4.74 87 1 87 C0.505 82.545 0.505 82.545 0 78 C-0.9590625 79.36125 -0.9590625 79.36125 -1.9375 80.75 C-6.06866009 85.60612691 -10.86105532 87.5796407 -17.12109375 88.41796875 C-26.36619098 88.8208764 -32.84699656 86.52102465 -39.875 80.5625 C-46.07630293 73.08445823 -49.67303101 65.15397813 -49.2890625 55.29296875 C-48.01668289 45.19990344 -43.85379727 38.01188783 -36.05859375 31.546875 C-29.51276517 26.62818787 -22.93727551 26.06073853 -15 27 C-9.29933054 28.67162488 -5.68172047 31.25462363 -1 35 C-0.67 23.45 -0.34 11.9 0 0 Z " fill="#101112" transform="translate(1062,604)"/>
<path d="M0 0 C6.12514119 3.67508471 10.60673144 10.41499853 12.375 17.3125 C14.14096059 27.87147271 13.68704951 37.29427074 7.421875 46.2578125 C2.98043412 51.67957142 -1.96616354 55.64542725 -9 57 C-17.83292341 57.76999332 -24.84609785 57.60625886 -32 52 C-33.73828125 50.45703125 -33.73828125 50.45703125 -35 49 C-35 48.34 -35 47.68 -35 47 C-35.66 47 -36.32 47 -37 47 C-37 58.88 -37 70.76 -37 83 C-40.63 83 -44.26 83 -48 83 C-48 54.95 -48 26.9 -48 -2 C-44.37 -2 -40.74 -2 -37 -2 C-37 0.64 -37 3.28 -37 6 C-36.34 6 -35.68 6 -35 6 C-34.75121094 5.39542969 -34.50242187 4.79085937 -34.24609375 4.16796875 C-32.80202545 1.65556152 -31.53864187 0.77420758 -29.0625 -0.6875 C-28.37285156 -1.10386719 -27.68320312 -1.52023437 -26.97265625 -1.94921875 C-18.2742011 -6.58265328 -8.41966498 -3.98096186 0 0 Z " fill="#0D0E0F" transform="translate(797,635)"/>
<path d="M0 0 C1.51400391 0.01740234 1.51400391 0.01740234 3.05859375 0.03515625 C4.07050781 0.04417969 5.08242188 0.05320312 6.125 0.0625 C6.90746094 0.07410156 7.68992187 0.08570313 8.49609375 0.09765625 C14.99711849 15.18557599 21.44507981 30.29539179 27.82714844 45.434021 C28.51386165 47.06283696 29.20102359 48.69146383 29.88867188 50.31988525 C33.29824837 58.3965698 36.68464826 66.48231053 39.97265625 74.609375 C40.70476318 76.41668091 40.70476318 76.41668091 41.45166016 78.26049805 C42.49609375 81.09765625 42.49609375 81.09765625 42.49609375 83.09765625 C37.87609375 83.09765625 33.25609375 83.09765625 28.49609375 83.09765625 C26.18609375 76.49765625 23.87609375 69.89765625 21.49609375 63.09765625 C8.95609375 63.09765625 -3.58390625 63.09765625 -16.50390625 63.09765625 C-20.46390625 72.99765625 -20.46390625 72.99765625 -24.50390625 83.09765625 C-28.79390625 83.09765625 -33.08390625 83.09765625 -37.50390625 83.09765625 C-35.452583 76.70296795 -33.10986065 70.53479185 -30.4765625 64.359375 C-30.09107742 63.44785172 -29.70559235 62.53632843 -29.3084259 61.59718323 C-28.06451338 58.6583746 -26.81565008 55.7217021 -25.56640625 52.78515625 C-24.70893549 50.7634361 -23.85167746 48.74162573 -22.99462891 46.71972656 C-20.88789779 41.7525773 -18.77663774 36.78736927 -16.66351318 31.82293701 C-15.59302316 29.3070967 -14.52393543 26.79066738 -13.45556641 24.27392578 C-11.76709326 20.29689791 -10.07399171 16.32187061 -8.37890625 12.34765625 C-7.88914307 11.19612061 -7.39937988 10.04458496 -6.89477539 8.8581543 C-6.45383545 7.82859619 -6.01289551 6.79903809 -5.55859375 5.73828125 C-5.18202637 4.85688477 -4.80545898 3.97548828 -4.41748047 3.06738281 C-3.0499766 0.11895385 -3.0499766 0.11895385 0 0 Z " fill="#0E0F10" transform="translate(695.50390625,607.90234375)"/>
<path d="M0 0 C8.58 0 17.16 0 26 0 C26 31.02 26 62.04 26 94 C17.42 94 8.84 94 0 94 C0 62.98 0 31.96 0 0 Z " fill="#012689" transform="translate(820,458)"/>
<path d="M0 0 C7.6836813 4.66660277 13.50569893 10.88695019 15.6875 19.8125 C16.08401419 23.85694476 16 27.93616475 16 32 C0.82 32 -14.36 32 -30 32 C-26.15739341 42.28864775 -26.15739341 42.28864775 -18 48 C-9.54141042 48.83867036 -3.65795625 48.41163932 3 43 C3.99 42.34 4.98 41.68 6 41 C8.31 42.98 10.62 44.96 13 47 C10.23252225 53.05385758 5.1594402 55.73886045 -0.80859375 58.12109375 C-9.182566 60.42726726 -18.88631296 60.13242646 -26.78515625 56.38671875 C-34.69282897 51.43570673 -38.92167266 44.88094861 -41.578125 36.0859375 C-43.29008661 27.62123845 -42.34870704 19.46365168 -38 12 C-29.24335585 -0.30192264 -14.54337899 -6.27536394 0 0 Z " fill="#0E0F10" transform="translate(1292,633)"/>
<path d="M0 0 C5.59111904 3.7370692 9.0629041 8.00832437 12 14 C12.495 14.99 12.495 14.99 13 16 C13 20.95 13 25.9 13 31 C-1.85 31 -16.7 31 -32 31 C-28.15739341 41.28864775 -28.15739341 41.28864775 -20 47 C-10.05006173 48.06304386 -10.05006173 48.06304386 -1.3125 44 C-0.73113281 43.443125 -0.14976563 42.88625 0.44921875 42.3125 C2 41 2 41 5 41 C7.18052998 42.48551921 9.02195971 44.24174197 11 46 C9.56767675 49.5198582 7.91637039 51.06793624 4.75 53.125 C4.00234375 53.62257813 3.2546875 54.12015625 2.484375 54.6328125 C-5.45450826 59.0016948 -14.93809855 59.46715586 -23.6953125 57.34765625 C-31.58787109 54.14388247 -37.78601792 48.65051659 -41.30859375 40.89453125 C-44.21512474 32.9303079 -44.5436987 22.73033389 -41.90625 14.6484375 C-37.705234 6.53690129 -31.91165893 1.12523172 -23.44921875 -2.30859375 C-15.70770559 -4.49399699 -7.23222045 -3.39422618 0 0 Z " fill="#0E0F10" transform="translate(1132,634)"/>
<path d="M0 0 C3.96 0 7.92 0 12 0 C12.0093457 1.21059082 12.01869141 2.42118164 12.02832031 3.66845703 C12.06829948 8.1751741 12.1340804 12.68121422 12.20751953 17.1875 C12.23568321 19.13500245 12.2569206 21.08261822 12.27099609 23.03027344 C12.29248946 25.83587468 12.33917198 28.64012 12.390625 31.4453125 C12.39185364 32.31116974 12.39308228 33.17702698 12.39434814 34.06912231 C12.5285054 39.6507629 13.4018167 42.68471994 17 47 C20.42090387 49.59516845 23.82443862 49.35386113 28 49 C32.57625305 47.44872778 36.06971721 45.90704372 39 42 C40.74567377 36.93391419 41.32723709 32.19747376 41.4140625 26.87890625 C41.43342865 26.13414536 41.4527948 25.38938446 41.4727478 24.62205505 C41.53200156 22.26898251 41.57870914 19.91585957 41.625 17.5625 C41.66322985 15.95636017 41.70228442 14.35023975 41.7421875 12.74414062 C41.8376575 8.82958675 41.92188543 4.91493709 42 1 C45.63 1 49.26 1 53 1 C53 19.81 53 38.62 53 58 C49.37 58 45.74 58 42 58 C41.505 54.535 41.505 54.535 41 51 C40.34 51.7425 39.68 52.485 39 53.25 C33.96832504 58.1695485 29.05870171 60.24186337 22 60.5 C15.75391303 60.26370415 11.03817068 58.9060763 6.47265625 54.5390625 C0.07712347 47.23517869 -0.15451602 39.96188326 -0.09765625 30.6640625 C-0.0962413 29.78471039 -0.09482635 28.90535828 -0.09336853 27.99935913 C-0.08779877 25.20787058 -0.0752519 22.41646406 -0.0625 19.625 C-0.05748109 17.72526158 -0.05291887 15.8255219 -0.04882812 13.92578125 C-0.03783925 9.28382286 -0.02059557 4.64192531 0 0 Z " fill="#0F1010" transform="translate(945,632)"/>
<path d="M0 0 C8.099279 4.06679899 15.42049964 8.91660356 22.828125 14.10546875 C25.6419355 16.07367472 28.48264005 17.98824347 31.359375 19.86328125 C32.05450195 20.31735352 32.74962891 20.77142578 33.46582031 21.23925781 C34.80021456 22.10728672 36.13801245 22.97011032 37.47949219 23.82714844 C39.02082897 24.83382097 40.51605643 25.91049546 42 27 C42 27.66 42 28.32 42 29 C40.60015869 30.17373657 40.60015869 30.17373657 38.61035156 31.48681641 C37.86827454 31.98138336 37.12619751 32.47595032 36.3616333 32.98550415 C35.54620056 33.51880341 34.73076782 34.05210266 33.890625 34.6015625 C33.05343933 35.15685638 32.21625366 35.71215027 31.35369873 36.28427124 C28.65671218 38.07103187 25.95351185 39.84813186 23.25 41.625 C21.47223479 42.80014391 19.69488588 43.97591787 17.91796875 45.15234375 C14.49317733 47.41888808 11.06517924 49.68045202 7.63476562 51.93847656 C4.80051214 53.80615915 1.97442497 55.68440833 -0.83789062 57.58496094 C-2.44180664 58.66825684 -2.44180664 58.66825684 -4.078125 59.7734375 C-4.9743457 60.38364746 -5.87056641 60.99385742 -6.79394531 61.62255859 C-9 63 -9 63 -12 64 C-10.73403806 51.75418838 -8.52002422 39.78749656 -6.05883789 27.73168945 C-5.42954251 24.64851298 -4.80882619 21.56369927 -4.18945312 18.47851562 C-3.79215238 16.51031856 -3.39438369 14.54221588 -2.99609375 12.57421875 C-2.81066513 11.65557541 -2.62523651 10.73693207 -2.43418884 9.79045105 C-2.26053299 8.94138687 -2.08687714 8.09232269 -1.90795898 7.2175293 C-1.75632797 6.47303024 -1.60469696 5.72853119 -1.44847107 4.96147156 C-1 3 -1 3 0 0 Z " fill="#F7F7F7" transform="translate(326,500)"/>
<path d="M0 0 C21.45 0 42.9 0 65 0 C65 3.63 65 7.26 65 11 C56.42 11 47.84 11 39 11 C39 34.76 39 58.52 39 83 C35.04 83 31.08 83 27 83 C27 59.24 27 35.48 27 11 C18.09 11 9.18 11 0 11 C0 7.37 0 3.74 0 0 Z " fill="#101213" transform="translate(1187,608)"/>
<path d="M0 0 C0.66 0 1.32 0 2 0 C5.34140782 15.12765984 8.50612308 30.27614072 11.375 45.5 C11.57431122 46.54800781 11.57431122 46.54800781 11.77764893 47.6171875 C12.15543891 49.60858396 12.52706604 51.60114658 12.8984375 53.59375 C13.21820557 55.30594727 13.21820557 55.30594727 13.54443359 57.05273438 C14 60 14 60 14 64 C9.34038854 62.40994807 5.6221527 59.8903365 1.6015625 57.125 C0.88954681 56.6410376 0.17753113 56.1570752 -0.55606079 55.65844727 C-2.83211486 54.11008835 -5.10367473 52.55528527 -7.375 51 C-9.60329658 49.48033182 -11.83251445 47.96202255 -14.06182861 46.44384766 C-15.53157637 45.44278861 -17.00093941 44.44116447 -18.46990967 43.43896484 C-25.61035351 38.57137783 -32.79876783 33.77704193 -40 29 C-38.69439221 25.08317664 -37.08616425 24.4795262 -33.63671875 22.26953125 C-33.08949661 21.91541672 -32.54227448 21.56130219 -31.97846985 21.19645691 C-30.21971268 20.06064062 -28.45393412 18.93633129 -26.6875 17.8125 C-25.54051431 17.07564957 -24.39402454 16.33802655 -23.24804688 15.59960938 C-21.53779392 14.49781326 -19.82726538 13.39648595 -18.11495972 12.29788208 C-8.57201815 6.72557741 -8.57201815 6.72557741 0 0 Z " fill="#F7F7F7" transform="translate(434,500)"/>
<path d="M0 0 C2.45374384 1.53878851 4.69481021 3.21527212 6.84375 5.15625 C5.40121343 8.52216866 3.51110273 10.66672079 0.84375 13.15625 C-1.42434746 12.02220127 -3.572063 10.89256371 -5.71875 9.53125 C-10.56226569 7.59384372 -15.00465032 7.44208743 -20.15625 8.15625 C-23.04340115 9.53770419 -23.04340115 9.53770419 -24.15625 12.15625 C-24.01275653 15.35579954 -24.01275653 15.35579954 -23.15625 18.15625 C-21.980625 18.548125 -20.805 18.94 -19.59375 19.34375 C-18.78164062 19.61832031 -17.96953125 19.89289062 -17.1328125 20.17578125 C-14.90726362 20.90886887 -12.67091792 21.60932299 -10.4296875 22.29296875 C-9.10936635 22.7057015 -7.78905387 23.11846198 -6.46875 23.53125 C-5.22738281 23.91023437 -3.98601562 24.28921875 -2.70703125 24.6796875 C1.94266911 26.61322626 5.35310343 28.91383643 8.19921875 33.1953125 C9.77105512 37.97750558 9.34404809 42.7109444 7.71875 47.40625 C3.43167957 53.69395329 -1.77144717 56.74808527 -9.15625 58.15625 C-18.17882554 59.11654751 -25.67929482 58.62615861 -33.15625 53.15625 C-35.13073213 51.24444984 -36.5739784 49.42417263 -38.15625 47.15625 C-35.84625 44.84625 -33.53625 42.53625 -31.15625 40.15625 C-29.13802083 41.68619792 -27.11979167 43.21614583 -25.1015625 44.74609375 C-21.71533961 47.20076536 -19.50653919 47.34465509 -15.34375 47.40625 C-14.30605469 47.43203125 -13.26835938 47.4578125 -12.19921875 47.484375 C-8.72867762 47.11014463 -6.88486219 46.31536963 -4.15625 44.15625 C-3.32291667 40.65625 -3.32291667 40.65625 -4.15625 37.15625 C-8.02124385 34.13787385 -12.272917 33.27859992 -16.96875 32.28125 C-24.25183743 30.5891028 -29.99445787 28.61446014 -35.15625 22.96875 C-36.94972357 17.92460558 -37.13517188 13.00402275 -35.3828125 7.90625 C-32.74844524 2.97381768 -29.17806112 0.23908101 -24.1015625 -1.99609375 C-15.97019963 -4.33628704 -7.52589395 -3.93143714 0 0 Z " fill="#0E0F10" transform="translate(1356.15625,633.84375)"/>
<path d="M0 0 C3.96 0 7.92 0 12 0 C12 5.61 12 11.22 12 17 C17.28 17 22.56 17 28 17 C28 20.3 28 23.6 28 27 C22.72 27 17.44 27 12 27 C12.09682741 31.94839035 12.19948533 36.89592104 12.31738281 41.84375 C12.35571104 43.52759329 12.39055712 45.21151955 12.421875 46.89550781 C12.46744287 49.31345306 12.52544923 51.73082528 12.5859375 54.1484375 C12.59748871 54.9036972 12.60903992 55.65895691 12.62094116 56.43710327 C12.60330066 60.67825198 12.60330066 60.67825198 15 64 C18.12814514 64.24360073 18.12814514 64.24360073 21.625 64.125 C22.81351563 64.10695313 24.00203125 64.08890625 25.2265625 64.0703125 C26.14179687 64.04710937 27.05703125 64.02390625 28 64 C28 67.3 28 70.6 28 74 C22.37828648 76.57876767 17.09324724 76.67702747 11 76 C7.00062682 74.03539563 4.21687031 71.87952304 2 68 C0.25685957 62.88276892 -0.27354185 58.24128017 -0.1953125 52.87890625 C-0.1924826 52.13414536 -0.18965271 51.38938446 -0.18673706 50.62205505 C-0.17563917 48.26869899 -0.1505551 45.91573891 -0.125 43.5625 C-0.11495672 41.95638575 -0.10583324 40.35026546 -0.09765625 38.74414062 C-0.07573407 34.82927704 -0.04127761 30.9147054 0 27 C-3.3 27 -6.6 27 -10 27 C-10 23.37 -10 19.74 -10 16 C-6.7 16 -3.4 16 0 16 C0 10.72 0 5.44 0 0 Z " fill="#161719" transform="translate(904,616)"/>
<path d="M0 0 C5.18984844 2.89433855 8.57810132 6.52908452 11.25 11.8125 C12.39828103 20.70604915 11.17967723 27.03821119 6.5625 34.5625 C2.41171155 38.60110498 -2.4806515 39.93601165 -8.1875 40.375 C-13.7513611 40.16322674 -17.72356032 37.50004095 -21.75 33.8125 C-26.39890706 27.85728847 -27.61077965 21.18368344 -26.75 13.8125 C-24.67459627 7.17120806 -20.80495506 3.16619082 -14.83203125 -0.30078125 C-9.95935028 -2.37601311 -4.91102438 -1.55515772 0 0 Z " fill="#F7F7F7" transform="translate(786.75,642.1875)"/>
<path d="M0 0 C5.7415062 3.14157887 9.7335166 7.50618165 12 13.6875 C13.18297449 21.73172654 11.52069329 27.46866445 7.125 34.125 C2.76750038 38.28883297 -1.7575397 39.88998785 -7.75 40.25 C-13.72467247 39.5861475 -17.53580308 37.36080178 -21.5 32.875 C-25.7648138 26.90426067 -26.3611386 22.03478929 -25.6875 14.8125 C-24.4240494 7.83224815 -20.40361082 3.78842386 -14.6875 -0.1875 C-9.46829895 -1.92723368 -5.14359457 -1.65641181 0 0 Z " fill="#F8F8F8" transform="translate(1050.6875,642.1875)"/>
<path d="M0 0 C3.63 0 7.26 0 11 0 C11 5.61 11 11.22 11 17 C16.28 17 21.56 17 27 17 C27 19.97 27 22.94 27 26 C21.72 26 16.44 26 11 26 C11.09691814 30.93007276 11.19963418 35.859301 11.31738281 40.78881836 C11.35566993 42.46582634 11.39052331 44.14291638 11.421875 45.82006836 C11.46753179 48.23060432 11.5255241 50.64057557 11.5859375 53.05078125 C11.59748871 53.80087967 11.60903992 54.55097809 11.62094116 55.32380676 C11.72695459 59.06127713 11.87619082 60.81428623 14 64 C17.12557959 64.36530232 17.12557959 64.36530232 20.625 64.1875 C21.81351563 64.16042969 23.00203125 64.13335938 24.2265625 64.10546875 C25.59941406 64.05326172 25.59941406 64.05326172 27 64 C27 67.3 27 70.6 27 74 C21.36335032 76.58561912 16.10722402 76.64635478 10 76 C4.96657373 73.84281731 3.11012386 70.98883667 0.82922363 66.2565918 C-0.56006945 62.47586577 -0.49481033 58.89253329 -0.390625 54.90625 C-0.38213531 53.65805481 -0.38213531 53.65805481 -0.37347412 52.38464355 C-0.35128184 49.7558159 -0.30112133 47.12840783 -0.25 44.5 C-0.22991268 42.70574901 -0.21166584 40.91147641 -0.1953125 39.1171875 C-0.15147383 34.74425398 -0.08256939 30.37236672 0 26 C-3.63 26 -7.26 26 -11 26 C-11 23.03 -11 20.06 -11 17 C-7.37 17 -3.74 17 0 17 C0 11.39 0 5.78 0 0 Z " fill="#0B0C0D" transform="translate(829,616)"/>
<path d="M0 0 C3.63 0 7.26 0 11 0 C11.495 7.92 11.495 7.92 12 16 C16.95 16.33 21.9 16.66 27 17 C27 19.97 27 22.94 27 26 C21.72 26 16.44 26 11 26 C11.12012814 30.60832011 11.24288305 35.21641625 11.37231445 39.82446289 C11.41552339 41.39082736 11.45720791 42.95723467 11.49731445 44.52368164 C11.55535871 46.7802418 11.61895302 49.03658908 11.68359375 51.29296875 C11.70030624 51.98899704 11.71701874 52.68502533 11.73423767 53.40214539 C11.84408419 57.03872797 12.15721991 60.45792427 13 64 C20.02782042 65.0390717 20.02782042 65.0390717 27 64 C28.1577506 67.47325181 28.06866652 70.36067448 28 74 C22.38212788 76.57700556 17.08962435 76.68487645 11 76 C7.4375 74.1875 7.4375 74.1875 5 72 C4.4225 71.566875 3.845 71.13375 3.25 70.6875 C-0.38646426 65.77827326 -0.27795199 59.49994658 -0.1953125 53.66015625 C-0.1924826 52.89319931 -0.18965271 52.12624237 -0.18673706 51.33604431 C-0.17563475 48.91136379 -0.15054967 46.48706691 -0.125 44.0625 C-0.1149573 42.4082085 -0.10583372 40.75391115 -0.09765625 39.09960938 C-0.07572817 35.06626077 -0.04126843 31.0331952 0 27 C-3.3 27 -6.6 27 -10 27 C-10 23.7 -10 20.4 -10 17 C-6.7 17 -3.4 17 0 17 C0 11.39 0 5.78 0 0 Z " fill="#0F1112" transform="translate(1383,616)"/>
<path d="M0 0 C0 18.48 0 36.96 0 56 C-4.01729975 54.3930801 -6.65242804 53.02245241 -10.09765625 50.5859375 C-11.05921631 49.91071045 -12.02077637 49.2354834 -13.01147461 48.53979492 C-14.01831299 47.8254126 -15.02515137 47.11103027 -16.0625 46.375 C-23.34173029 41.24212886 -30.61748815 36.18372358 -38.18359375 31.48046875 C-38.78300781 30.99191406 -39.38242187 30.50335938 -40 30 C-40 29.01 -40 28.02 -40 27 C-37.72437958 25.21441897 -35.48100441 23.63371667 -33.0625 22.0625 C-31.59683603 21.0845615 -30.13202118 20.10534945 -28.66796875 19.125 C-27.90274902 18.61582031 -27.1375293 18.10664063 -26.34912109 17.58203125 C-22.47777027 14.97484425 -18.6780997 12.26784964 -14.875 9.5625 C-1.41971834 0 -1.41971834 0 0 0 Z " fill="#F9F9F9" transform="translate(372,457)"/>
<path d="M0 0 C7.24457447 4.58319018 14.44052392 9.23267571 21.59375 13.95703125 C22.54769653 14.58606857 23.50164307 15.2151059 24.48449707 15.86320496 C27.49021046 17.84547743 30.49511307 19.828975 33.5 21.8125 C35.54421845 23.16088672 37.58848884 24.50919467 39.6328125 25.85742188 C43.35382668 28.31178474 47.07467471 30.76639846 50.79492188 33.22192383 C51.53673706 33.71155106 52.27855225 34.20117828 53.04284668 34.7056427 C54.69768291 35.80006353 56.34921559 36.89947706 58 38 C56.89504089 41.31487734 56.53900106 41.58128382 53.71875 43.3046875 C53.04521484 43.72121582 52.37167969 44.13774414 51.67773438 44.56689453 C50.95908203 44.99856934 50.24042969 45.43024414 49.5 45.875 C48.77619141 46.31827637 48.05238281 46.76155273 47.30664062 47.21826172 C42.27669249 50.28148662 37.19181953 53.21866811 32 56 C25.67288426 47.21113958 19.85195418 38.1073459 14 29 C12.00224742 25.89437949 10.00171773 22.79056578 8 19.6875 C7.54334961 18.97650146 7.08669922 18.26550293 6.61621094 17.53295898 C4.88919483 14.8554372 3.21113652 12.25968418 1.19921875 9.78515625 C-0.89961723 6.66083038 -0.18318637 3.66372744 0 0 Z " fill="#F7F7F7" transform="translate(391,543)"/>
<path d="M0 0 C4.30701567 1.72280627 7.52298745 3.61129758 11.1875 6.3125 C12.41665501 7.2057452 13.64582234 8.09897347 14.875 8.9921875 C15.86113281 9.71293457 15.86113281 9.71293457 16.8671875 10.44824219 C19.17359691 12.12630288 21.49183174 13.78703243 23.8125 15.4453125 C25.43755339 16.60930047 27.06255404 17.77336206 28.6875 18.9375 C29.85478638 19.77051636 29.85478638 19.77051636 31.0456543 20.62036133 C31.77695557 21.14654053 32.50825684 21.67271973 33.26171875 22.21484375 C33.91100342 22.68011475 34.56028809 23.14538574 35.22924805 23.62475586 C36.96639603 24.97390167 38.48230726 26.41091396 40 28 C32.33715045 33.65839844 24.54887456 39.08911121 16.625 44.375 C15.04525391 45.44041016 15.04525391 45.44041016 13.43359375 46.52734375 C11.90798828 47.54634766 11.90798828 47.54634766 10.3515625 48.5859375 C9.44229004 49.1948584 8.53301758 49.8037793 7.59619141 50.43115234 C5 52 5 52 0 54 C0 36.18 0 18.36 0 0 Z " fill="#F9F9F9" transform="translate(391,458)"/>
<path d="M0 0 C0.74471714 4.89385546 0.08211928 7.35010081 -2.8125 11.375 C-3.45703125 12.23222656 -4.1015625 13.08945312 -4.765625 13.97265625 C-7.36246701 17.49110478 -9.71122439 21.12758223 -12.0625 24.8125 C-18.57910331 34.96090911 -25.28810632 44.98011212 -32 55 C-38.57545298 51.49895208 -44.99779909 47.89780371 -51.1875 43.75 C-51.85330078 43.316875 -52.51910156 42.88375 -53.20507812 42.4375 C-54.84190665 41.34740248 -56.42697383 40.18030034 -58 39 C-58 38.34 -58 37.68 -58 37 C-55.51107634 35.24526312 -53.0188446 33.6089884 -50.4375 32 C-48.86530474 31.00221645 -47.29370079 30.00350066 -45.72265625 29.00390625 C-44.92746582 28.50004395 -44.13227539 27.99618164 -43.31298828 27.47705078 C-39.96990239 25.34219015 -36.6694443 23.14643041 -33.375 20.9375 C-32.76954346 20.53241211 -32.16408691 20.12732422 -31.5402832 19.70996094 C-30.31631693 18.89083879 -29.09260229 18.07134051 -27.86914062 17.25146484 C-23.99461218 14.65731218 -20.1137215 12.07265234 -16.23120117 9.49047852 C-13.52074665 7.68676529 -10.81749645 5.87535131 -8.12890625 4.0390625 C-7.32324219 3.48992188 -6.51757812 2.94078125 -5.6875 2.375 C-5.01074219 1.90835938 -4.33398438 1.44171875 -3.63671875 0.9609375 C-2 0 -2 0 0 0 Z " fill="#F6F6F7" transform="translate(371,544)"/>
<path d="M0 0 C1.54476684 7.92004669 3.06553746 15.8446068 4.57513428 23.77142334 C5.02898245 26.15202357 5.4845023 28.53230131 5.93994141 30.91259766 C6.76430992 35.22720402 7.57954285 39.54346717 8.38961792 43.86077881 C8.71323917 45.57876916 9.0395141 47.29626176 9.36843872 49.01324463 C9.83347649 51.44374884 10.2889307 53.87586895 10.7421875 56.30859375 C10.8846138 57.04189407 11.0270401 57.7751944 11.17378235 58.53071594 C11.77919677 61.83189907 12.08004361 63.75986916 11 67 C-24.04510657 16.88357087 -24.04510657 16.88357087 -23.89794922 14.00097656 C-22.67387685 11.27327207 -21.19239065 10.50014816 -18.6328125 8.984375 C-17.74722656 8.45585938 -16.86164063 7.92734375 -15.94921875 7.3828125 C-15.01722656 6.84398437 -14.08523438 6.30515625 -13.125 5.75 C-12.20074219 5.19570313 -11.27648437 4.64140625 -10.32421875 4.0703125 C-3.41671798 0 -3.41671798 0 0 0 Z " fill="#F4F4F4" transform="translate(455,596)"/>
<path d="M0 0 C5.1635944 1.76317857 9.62741693 4.66041326 14.25 7.5 C15.07757813 7.99886719 15.90515625 8.49773438 16.7578125 9.01171875 C17.93730469 9.73294922 17.93730469 9.73294922 19.140625 10.46875 C19.85766602 10.90638672 20.57470703 11.34402344 21.31347656 11.79492188 C23 13 23 13 24 15 C22.57895821 17.50552105 21.10066427 19.86122447 19.5 22.25 C18.76644287 23.3632666 18.76644287 23.3632666 18.01806641 24.49902344 C8.55020963 38.80221843 -1.19940719 52.92326778 -11 67 C-12.14501854 63.56494437 -11.83727808 61.98602933 -11.21484375 58.453125 C-11.01665039 57.31222412 -10.81845703 56.17132324 -10.61425781 54.99584961 C-10.39092773 53.75971924 -10.16759766 52.52358887 -9.9375 51.25 C-9.71288086 49.97842041 -9.48826172 48.70684082 -9.25683594 47.39672852 C-2.60689667 9.95948917 -2.60689667 9.95948917 0 0 Z " fill="#F4F4F5" transform="translate(307,596)"/>
<path d="M0 0 C3.05120522 1.17184529 4.98083662 2.77326895 7.171875 5.16015625 C8.03981689 6.09782837 8.03981689 6.09782837 8.92529297 7.05444336 C9.52744629 7.71710205 10.12959961 8.37976074 10.75 9.0625 C11.36891113 9.73482666 11.98782227 10.40715332 12.62548828 11.09985352 C17.13972311 16.01615399 21.61151521 20.97095998 26 26 C21.54487403 32.12579821 16.47346206 35.45479114 9 37 C1.13087865 37.43717341 -3.56409109 35.70404059 -9.484375 30.73046875 C-13.30170618 26.37202104 -13.54663516 21.34929127 -13.44921875 15.7890625 C-12.50174092 9.90646103 -8.54777319 6.37188988 -4.25 2.5625 C-2 1 -2 1 0 0 Z " fill="#F8F8F8" transform="translate(977,499)"/>
<path d="M0 0 C0.97646484 0.00322266 1.95292969 0.00644531 2.95898438 0.00976562 C3.96638672 0.01814453 4.97378906 0.02652344 6.01171875 0.03515625 C7.03845703 0.03966797 8.06519531 0.04417969 9.12304688 0.04882812 C11.64849757 0.06057441 14.1738278 0.0770006 16.69921875 0.09765625 C16.72984896 1.67435585 16.75152919 3.25123066 16.76953125 4.828125 C16.78258301 5.70621826 16.79563477 6.58431152 16.80908203 7.48901367 C16.57082061 13.1463987 14.88576292 16.88414516 10.94921875 20.91015625 C3.88495472 25.66494935 -1.90237232 26.98820919 -10.30078125 26.09765625 C-14.44150346 25.18257952 -16.88910699 23.56210926 -19.73828125 20.34765625 C-21.60265093 16.46976732 -21.98406859 14.34922193 -21.30078125 10.09765625 C-17.86213123 4.83854445 -14.05938677 2.00391208 -7.94458008 0.52954102 C-5.24249564 0.08813485 -2.73616278 -0.01600095 0 0 Z " fill="#F7F7FB" transform="translate(1286.30078125,510.90234375)"/>
<path d="M0 0 C4.09310358 2.2963278 6.29591655 4.97528142 7.75 9.4375 C8.53835575 15.64580156 7.53262668 20.364066 3.75 25.4375 C0.18442956 28.80445776 -3.48552121 29.70522433 -8.3125 29.9375 C-12.96762648 29.73940951 -15.69245567 28.56119746 -19.25 25.4375 C-23.20465155 20.93737927 -23.60797237 16.74895167 -23.5234375 10.94140625 C-23.0418305 6.53126217 -21.10074919 3.93684112 -17.70703125 1.1875 C-11.93630967 -2.61563001 -6.2391797 -2.67393416 0 0 Z " fill="#06298B" transform="translate(841.25,414.5625)"/>
<path d="M0 0 C3.96847722 1.42402552 7.2046422 3.3206447 10.6875 5.6875 C11.72777344 6.39261719 12.76804687 7.09773438 13.83984375 7.82421875 C18.24487252 10.85710011 22.63501509 13.9097452 27 17 C25.47717574 21.08518124 23.01330343 22.63701601 19.4375 25 C18.27126549 25.77995079 17.10595035 26.56127749 15.94140625 27.34375 C15.31250488 27.76398438 14.68360352 28.18421875 14.03564453 28.6171875 C11.82257454 30.12052504 9.64197833 31.66385126 7.46484375 33.21875 C6.70308838 33.76273437 5.94133301 34.30671875 5.15649414 34.8671875 C3.65291187 35.9432665 2.15075874 37.02134562 0.65014648 38.1015625 C-0.04135498 38.59398437 -0.73285645 39.08640625 -1.4453125 39.59375 C-2.36594482 40.25407227 -2.36594482 40.25407227 -3.30517578 40.92773438 C-5 42 -5 42 -8 43 C-6.83792067 28.35780041 -3.75637778 14.16745527 0 0 Z " fill="#F5F5F5" transform="translate(341,424)"/>
<path d="M0 0 C3.63 0 7.26 0 11 0 C12.7182309 1.7182309 12.12754321 3.98597749 12.12939453 6.33007812 C12.13254669 7.46795776 12.13569885 8.6058374 12.13894653 9.77819824 C12.1369223 11.01670532 12.13489807 12.2552124 12.1328125 13.53125 C12.13376923 14.79263794 12.13472595 16.05402588 12.13571167 17.3536377 C12.13639375 20.02697138 12.13503529 22.70021437 12.13037109 25.37353516 C12.12467381 28.80706691 12.12795301 32.2405205 12.13394356 35.67404938 C12.13841762 38.93895243 12.13528883 42.20384593 12.1328125 45.46875 C12.13483673 46.70725708 12.13686096 47.94576416 12.13894653 49.22180176 C12.13579437 50.3596814 12.13264221 51.49756104 12.12939453 52.66992188 C12.12820114 54.18096497 12.12820114 54.18096497 12.12698364 55.72253418 C12 58 12 58 11 59 C7.37 59 3.74 59 0 59 C0 39.53 0 20.06 0 0 Z " fill="#08090A" transform="translate(870,632)"/>
<path d="M0 0 C2.50141919 3.75212878 2.97799344 7.39587645 3.7265625 11.75390625 C3.87910492 12.61056381 4.03164734 13.46722137 4.18881226 14.34983826 C4.50969895 16.15899591 4.8272143 17.96875432 5.14160156 19.77905273 C5.62394757 22.55644003 6.11570913 25.33202646 6.609375 28.10742188 C6.91981799 29.86448675 7.22973194 31.62164519 7.5390625 33.37890625 C7.68590485 34.21224991 7.83274719 35.04559357 7.98403931 35.90419006 C9 41.76312632 9 41.76312632 9 44 C4.91364685 42.16889998 1.35361477 39.60278265 -2.3125 37.0625 C-3.00730469 36.58321045 -3.70210938 36.1039209 -4.41796875 35.61010742 C-11.71631042 30.54885897 -18.87077029 25.29570655 -26 20 C-24.67803507 16.03410521 -22.88737319 15.2965861 -19.43359375 12.98828125 C-18.88010757 12.61519333 -18.3266214 12.24210541 -17.75636292 11.85771179 C-15.98833367 10.66843272 -14.21312121 9.49040635 -12.4375 8.3125 C-11.23714036 7.50789176 -10.03726424 6.70256168 -8.83789062 5.89648438 C-5.89749048 3.92258435 -2.95054781 1.9587086 0 0 Z " fill="#F5F5F5" transform="translate(420,423)"/>
<path d="M0 0 C6.67544953 8.43313092 6.64999556 17.55364274 6 28 C4.96371067 36.80845931 0.22013075 45.77986925 -6 52 C-12.02583337 56.70732089 -18.16202599 60.12036836 -25.75 61.5 C-29.13602616 60.74754974 -30.15739248 58.8297187 -32 56 C-32.495 54.515 -32.495 54.515 -33 53 C-31.99839844 52.50371094 -30.99679687 52.00742187 -29.96484375 51.49609375 C-16.47678453 44.67242359 -8.47441954 37.54128169 -3.1875 22.72265625 C-2.6361035 20.47830019 -2.29193006 18.29422683 -2 16 C-1.91411621 15.35998047 -1.82823242 14.71996094 -1.73974609 14.06054688 C-1.11290876 9.37875679 -0.54121083 4.69241307 0 0 Z " fill="#F1F3F9" transform="translate(416,671)"/>
<path d="M0 0 C8.25 0 16.5 0 25 0 C25 10.56 25 21.12 25 32 C19.23069217 28.79482898 13.94822572 25.7364081 8.6875 21.875 C8.09388672 21.44574219 7.50027344 21.01648438 6.88867188 20.57421875 C5.25407878 19.389731 3.62674548 18.19524263 2 17 C1.20980469 16.47148437 0.41960937 15.94296875 -0.39453125 15.3984375 C-2 14 -2 14 -2.375 10.75 C-2 7 -2 7 0 0 Z " fill="#F9F9F9" transform="translate(347,395)"/>
<path d="M0 0 C7.92 0 15.84 0 24 0 C26.64393339 9.25376685 26.64393339 9.25376685 26 14 C23.796875 16.37109375 23.796875 16.37109375 20.75 18.4375 C19.66460937 19.18773437 18.57921875 19.93796875 17.4609375 20.7109375 C16.89213867 21.08702148 16.32333984 21.46310547 15.73730469 21.85058594 C14.00836164 22.99446788 12.30379671 24.16838638 10.6015625 25.3515625 C2.3584364 31 2.3584364 31 0 31 C0 20.77 0 10.54 0 0 Z " fill="#F8F8F8" transform="translate(391,395)"/>
<path d="M0 0 C0.66 0 1.32 0 2 0 C3.85794168 4.64219349 5.70916643 9.28698692 7.55419922 13.93432617 C8.18288913 15.51513888 8.813413 17.0952235 9.44580078 18.67456055 C10.35411208 20.94391287 11.2558103 23.21579609 12.15625 25.48828125 C12.44060913 26.19463211 12.72496826 26.90098297 13.01794434 27.6287384 C14.17832702 30.57331497 15 32.80440229 15 36 C5.76 36 -3.48 36 -13 36 C-12.12947127 31.64735637 -10.89263503 27.82500757 -9.27734375 23.73046875 C-8.87993736 22.70896477 -8.87993736 22.70896477 -8.47450256 21.66682434 C-7.63266351 19.50553269 -6.78517493 17.34650855 -5.9375 15.1875 C-5.36355707 13.71694326 -4.78998532 12.2462416 -4.21679688 10.77539062 C-2.81548952 7.18190172 -1.40911334 3.59043473 0 0 Z " fill="#F5F5F6" transform="translate(697,623)"/>
<path d="M0 0 C3.7923241 3.23462938 4.95684152 5.67275922 5.6875 10.625 C5.45106314 15.84631394 2.83267202 19.29957439 -0.875 22.8125 C-3.76281199 24.75179488 -6.7194841 26.35395043 -9.875 27.8125 C-11.17520011 26.42461198 -12.4648193 25.02680742 -13.75 23.625 C-14.46929688 22.84769531 -15.18859375 22.07039063 -15.9296875 21.26953125 C-19.56886097 16.67306516 -20.48811652 12.63710692 -19.875 6.8125 C-15.57407942 -1.32852825 -8.51572649 -3.51736529 0 0 Z " fill="#F4F4F4" transform="translate(994.875,449.1875)"/>
<path d="M0 0 C4.73309489 1.60587148 7.38232845 3.73416488 10 8 C10.495 11.465 10.495 11.465 11 15 C-0.22 15 -11.44 15 -23 15 C-21.88714272 8.3228563 -20.17441472 5.27975794 -14.69921875 1.34765625 C-9.98390467 -1.00658884 -5.14710504 -0.5098218 0 0 Z " fill="#F7F7F8" transform="translate(1285,641)"/>
<path d="M0 0 C4.73309489 1.60587148 7.38232845 3.73416488 10 8 C10.495 11.465 10.495 11.465 11 15 C-0.22 15 -11.44 15 -23 15 C-21.13016357 8.4555725 -20.14701923 5.24632062 -14.734375 1.3828125 C-10.00576375 -1.00851376 -5.17448158 -0.51253345 0 0 Z " fill="#F7F7F7" transform="translate(1123,641)"/>
<path d="M0 0 C3.63 0 7.26 0 11 0 C12.7182309 1.7182309 12.12754321 3.98597749 12.12939453 6.33007812 C12.13254669 7.46795776 12.13569885 8.6058374 12.13894653 9.77819824 C12.1369223 11.01670532 12.13489807 12.2552124 12.1328125 13.53125 C12.13376923 14.79263794 12.13472595 16.05402588 12.13571167 17.3536377 C12.13639375 20.02697138 12.13503529 22.70021437 12.13037109 25.37353516 C12.12467381 28.80706691 12.12795301 32.2405205 12.13394356 35.67404938 C12.13841762 38.93895243 12.13528883 42.20384593 12.1328125 45.46875 C12.13483673 46.70725708 12.13686096 47.94576416 12.13894653 49.22180176 C12.13579437 50.3596814 12.13264221 51.49756104 12.12939453 52.66992188 C12.12820114 54.18096497 12.12820114 54.18096497 12.12698364 55.72253418 C12 58 12 58 11 59 C7.37 59 3.74 59 0 59 C0 39.53 0 20.06 0 0 Z M1 1 C0.97468653 8.49307536 0.95714856 15.98613973 0.94506836 23.47924805 C0.94003338 26.02938245 0.93320504 28.57951395 0.92456055 31.12963867 C0.91245851 34.79086012 0.90676339 38.45204348 0.90234375 42.11328125 C0.89718246 43.2571077 0.89202118 44.40093414 0.88670349 45.579422 C0.88662796 46.64029526 0.88655243 47.70116852 0.88647461 48.79418945 C0.884254 49.72906693 0.88203339 50.6639444 0.87974548 51.62715149 C0.90145555 54.15070896 0.90145555 54.15070896 2 57 C4.64 57 7.28 57 10 57 C10 38.85 10 20.7 10 2 C7.03 1.67 4.06 1.34 1 1 Z " fill="#474748" transform="translate(870,632)"/>
<path d="M0 0 C3.05623277 2.09110663 3.86463014 3.29306849 4.5625 6.9375 C3.79395747 11.12178713 2.46194162 12.56927503 -1 15 C-5.02034924 14.93185849 -7.1176825 14.8823175 -10 12 C-10.49597707 8.96069865 -10.44606903 6.04442112 -10 3 C-7.26135833 -0.47596827 -4.2407782 -0.61844682 0 0 Z " fill="#101112" transform="translate(879,606)"/>
<path d="M0 0 C2.32441815 3.48662723 2.24401741 4.82577923 2.22705078 8.94018555 C2.22689972 10.16122482 2.22674866 11.3822641 2.22659302 12.64030457 C2.21627045 13.95912125 2.20594788 15.27793793 2.1953125 16.63671875 C2.19158161 18.00006401 2.188735 19.36341196 2.18673706 20.72676086 C2.17910653 24.31234154 2.15946315 27.89775979 2.1373291 31.48327637 C2.11685811 35.14312544 2.10773267 38.80300079 2.09765625 42.46289062 C2.07621658 49.64200965 2.04103931 56.82096136 2 64 C-5.92 64 -13.84 64 -22 64 C-22 63.34 -22 62.68 -22 62 C-14.74 62 -7.48 62 0 62 C0 41.54 0 21.08 0 0 Z " fill="#394EA0" transform="translate(1326,489)"/>
<path d="M0 0 C0.66 0.33 1.32 0.66 2 1 C1.154375 1.64066406 0.30875 2.28132813 -0.5625 2.94140625 C-1.70851073 3.81487147 -2.85433114 4.68858643 -4 5.5625 C-4.59506348 6.01343018 -5.19012695 6.46436035 -5.80322266 6.92895508 C-9.19061482 9.52031468 -12.31903302 12.20400655 -15.375 15.1875 C-18.32066304 17.85173027 -18.68433567 17.99498946 -22.9375 18.0625 C-26 17 -26 17 -27 15 C-23.62654897 13.05979375 -20.25096798 11.12332291 -16.875 9.1875 C-15.92367187 8.64029297 -14.97234375 8.09308594 -13.9921875 7.52929688 C-3.40116089 1.46152121 -3.40116089 1.46152121 0 0 Z " fill="#112E92" transform="translate(259,336)"/>
<path d="M0 0 C1.81612488 0.95144598 3.62781081 1.91136933 5.4375 2.875 C6.44683594 3.40867187 7.45617187 3.94234375 8.49609375 4.4921875 C11 6 11 6 12 8 C10.06115111 7.71743908 8.12394039 7.4236207 6.1875 7.125 C5.10855469 6.96257813 4.02960937 6.80015625 2.91796875 6.6328125 C0 6 0 6 -3 4 C-2.34 4 -1.68 4 -1 4 C-0.67 2.68 -0.34 1.36 0 0 Z " fill="#29292A" transform="translate(558,749)"/>
<path d="M0 0 C4.23985937 4.11137878 8.27845742 8.40973998 12 13 C12 13.33 12 13.66 12 14 C9.73828125 14.3671875 9.73828125 14.3671875 7 14 C4.98046875 11.4453125 4.98046875 11.4453125 3.1875 8.125 C2.28064453 6.48917969 2.28064453 6.48917969 1.35546875 4.8203125 C0 2 0 2 0 0 Z " fill="#252526" transform="translate(553,383)"/>
<path d="M0 0 C0.33 0 0.66 0 1 0 C1.66 4.95 2.32 9.9 3 15 C-0.45397435 11.54602565 -1.56375905 10.30872286 -3 6 C-2.34 5.34 -1.68 4.68 -1 4 C-0.3574765 1.93125966 -0.3574765 1.93125966 0 0 Z " fill="#D9DADA" transform="translate(464,648)"/>
<path d="M0 0 C0.99 0.66 1.98 1.32 3 2 C1.38405168 4.04119788 -0.2856382 6.04072937 -2 8 C-2.66 8 -3.32 8 -4 8 C-4.33 9.32 -4.66 10.64 -5 12 C-5.33 11.01 -5.66 10.02 -6 9 C-4.78515625 6.73828125 -4.78515625 6.73828125 -3.0625 4.3125 C-2.49660156 3.50425781 -1.93070313 2.69601562 -1.34765625 1.86328125 C-0.90292969 1.24839844 -0.45820312 0.63351562 0 0 Z " fill="#123297" transform="translate(1247,506)"/>
<path d="M0 0 C2.60704898 2.60704898 2.23905333 4.47338241 2.265625 8.02734375 C2 10 2 10 0 13 C-2.14400661 10.85599339 -1.92028804 6.93226121 -2 4 C-1.0625 1.5 -1.0625 1.5 0 0 Z " fill="#203E95" transform="translate(847,422)"/>
<path d="M0 0 C0.66 0.33 1.32 0.66 2 1 C0.61987977 2.20572596 -0.77982828 3.38905751 -2.1875 4.5625 C-2.96480469 5.22378906 -3.74210938 5.88507813 -4.54296875 6.56640625 C-7 8 -7 8 -9.80078125 7.71484375 C-10.52652344 7.47894531 -11.25226563 7.24304688 -12 7 C-8.44008172 4.03340143 -4.34777457 1.618652 0 0 Z " fill="#293E9F" transform="translate(259,336)"/>
<path d="M0 0 C0.99 0.33 1.98 0.66 3 1 C2.113125 1.70125 1.22625 2.4025 0.3125 3.125 C-2.90375955 5.79121041 -5.41236896 8.72740781 -8 12 C-8.66 11.67 -9.32 11.34 -10 11 C-6.7 7.37 -3.4 3.74 0 0 Z " fill="#1A3693" transform="translate(1113,424)"/>
<path d="M0 0 C1.24031557 3.72094671 0.57190264 4.99455723 -0.75 8.625 C-1.26820313 10.09839844 -1.26820313 10.09839844 -1.796875 11.6015625 C-3 14 -3 14 -6 15 C-4.36041242 9.76727367 -2.61047965 4.84803364 0 0 Z " fill="#1A3592" transform="translate(157,436)"/>
<path d="M0 0 C0.6875 1.6875 0.6875 1.6875 1 4 C-0.1875 6.6875 -0.1875 6.6875 -2 9 C-4.1875 9.8125 -4.1875 9.8125 -6 10 C-4.07119658 6.59244728 -2.1723491 3.25852365 0 0 Z " fill="#113192" transform="translate(178,401)"/>
<path d="M0 0 C2.625 0.9375 2.625 0.9375 5 2 C1.17482487 4.39073445 -2.59665524 4.55966552 -7 5 C-2.25 1.125 -2.25 1.125 0 0 Z " fill="#2A292A" transform="translate(195,752)"/>
<path d="M0 0 C0.66 0 1.32 0 2 0 C2.66 2.31 3.32 4.62 4 7 C2.02 7 0.04 7 -2 7 C-1.34 4.69 -0.68 2.38 0 0 Z " fill="#DFDFDF" transform="translate(697,623)"/>
<path d="M0 0 C0.33 0.66 0.66 1.32 1 2 C0.0625 4.125 0.0625 4.125 -1 6 C-3.475 5.01 -3.475 5.01 -6 4 C-3.94766315 1.7522025 -2.99332739 0.9977758 0 0 Z " fill="#1B389A" transform="translate(215,287)"/>
<path d="M0 0 C0.33 0.99 0.66 1.98 1 3 C0.03114628 4.68496298 -0.96986723 6.35178756 -2 8 C-2 8.99 -2 9.98 -2 11 C-2.99 11.33 -3.98 11.66 -5 12 C-5.33 11.34 -5.66 10.68 -6 10 C-4.78515625 7.6171875 -4.78515625 7.6171875 -3.0625 4.875 C-2.21365234 3.50988281 -2.21365234 3.50988281 -1.34765625 2.1171875 C-0.90292969 1.41851563 -0.45820313 0.71984375 0 0 Z " fill="#173290" transform="translate(373,593)"/>
<path d="M0 0 C0 3.5609462 -0.77175808 4.34325001 -3 7 C-3.66 7.66 -4.32 8.32 -5 9 C-5.33 7.68 -5.66 6.36 -6 5 C-4.02 3.35 -2.04 1.7 0 0 Z " fill="#1A3798" transform="translate(1252,465)"/>
<path d="M0 0 C2.30019361 3.45029042 2.43132515 4.94554358 2 9 C1.01 9.66 0.02 10.32 -1 11 C-0.67 7.37 -0.34 3.74 0 0 Z " fill="#21409E" transform="translate(524,375)"/>
<path d="M0 0 C-1.49097658 3.7952131 -3.75700849 5.61042731 -7 8 C-7 5 -7 5 -4.625 2.3125 C-2 0 -2 0 0 0 Z " fill="#141718" transform="translate(967,436)"/>
<path d="M0 0 C1.1875 1.6875 1.1875 1.6875 2 4 C0.625 6.75 0.625 6.75 -1 9 C-1.99 8.34 -2.98 7.68 -4 7 C-2.68 4.69 -1.36 2.38 0 0 Z " fill="#12318D" transform="translate(354,624)"/>
<path d="M0 0 C2.125 0.9375 2.125 0.9375 4 2 C-0.75 5 -0.75 5 -3 5 C-2.625 3.0625 -2.625 3.0625 -2 1 C-1.34 0.67 -0.68 0.34 0 0 Z " fill="#102E8B" transform="translate(459,327)"/>
<path d="M0 0 C2.31 0 4.62 0 7 0 C6.21625 0.598125 5.4325 1.19625 4.625 1.8125 C1.85425677 3.91085249 1.85425677 3.91085249 0 7 C0 4.69 0 2.38 0 0 Z " fill="#040506" transform="translate(1373,633)"/>
<path d="M0 0 C0.66 0.66 1.32 1.32 2 2 C1.54545455 7.45454545 1.54545455 7.45454545 -1 10 C-1.125 3.375 -1.125 3.375 0 0 Z " fill="#133395" transform="translate(1092,456)"/>
<path d="M0 0 C0.33 0.99 0.66 1.98 1 3 C-1.97 5.475 -1.97 5.475 -5 8 C-5.66 7.67 -6.32 7.34 -7 7 C-4.69 4.69 -2.38 2.38 0 0 Z " fill="#1B1B1D" transform="translate(527,666)"/>
<path d="M0 0 C2.01822917 0.06510417 4.03645833 0.13020833 6.0546875 0.1953125 C4.4296875 1.7578125 4.4296875 1.7578125 2.0546875 3.1953125 C-1.1953125 2.8828125 -1.1953125 2.8828125 -3.9453125 2.1953125 C-1.9453125 0.1953125 -1.9453125 0.1953125 0 0 Z " fill="#2341A3" transform="translate(1373.9453125,455.8046875)"/>
<path d="M0 0 C0.33 0.99 0.66 1.98 1 3 C-0.98 4.32 -2.96 5.64 -5 7 C-5.66 6.67 -6.32 6.34 -7 6 C-4.69 4.02 -2.38 2.04 0 0 Z " fill="#13318E" transform="translate(214,364)"/>
</svg>
